<?xml version="1.0" encoding="UTF-8"?>
<svg width="34px" height="26px" viewBox="0 0 34 26" version="1.1" xmlns="http://www.w3.org/2000/svg" xmlns:xlink="http://www.w3.org/1999/xlink">
    <!-- Generator: Sketch 61.2 (89653) - https://sketch.com -->
    <title>talk</title>
    <desc>Created with Sketch.</desc>
    <g id="Stylesheet" stroke="none" stroke-width="1" fill="none" fill-rule="evenodd">
        <g id="Overzichtspagina-desktop" transform="translate(-1135.000000, -469.000000)" fill="#FFFFFF">
            <g id="Group" transform="translate(1101.000000, 292.000000)">
                <g id="talk" transform="translate(34.000000, 177.000000)">
                    <path d="M17,-5.54223334e-14 C26.3888407,-5.54223334e-14 34,5.43227837 34,12.1333333 C34,14.6513065 32.925351,16.9901362 31.0855463,18.9289291 C30.2531722,19.806088 29.2641794,20.6013639 28.1472291,21.2943008 L31.8214564,24.4422319 C35.1007063,25.5685327 33.8264792,25.8390657 27.9987752,25.2538309 C27.148621,25.1684559 25.9088879,24.4509898 24.2795757,23.1014323 C22.0728646,23.8485251 19.6048495,24.2666667 17,24.2666667 C7.61115925,24.2666667 0,18.8343883 0,12.1333333 C0,5.43227837 7.61115925,-5.54223334e-14 17,-5.54223334e-14 Z" id="Combined-Shape"></path>
                </g>
            </g>
        </g>
    </g>
</svg>