<?xml version="1.0" encoding="UTF-8"?>
<svg width="40px" height="39px" viewBox="0 0 40 39" version="1.1" xmlns="http://www.w3.org/2000/svg" xmlns:xlink="http://www.w3.org/1999/xlink">
    <!-- Generator: Sketch 61.2 (89653) - https://sketch.com -->
    <title>Search</title>
    <desc>Created with Sketch.</desc>
    <defs>
        <path d="M15.1351351,0 C23.4940395,0 30.2702703,6.54783553 30.2702703,14.625 C30.2702703,22.7021645 23.4940395,29.25 15.1351351,29.25 C6.77623081,29.25 0,22.7021645 0,14.625 C0,6.54783553 6.77623081,0 15.1351351,0 Z M15.1351351,4.33333333 C9.16448919,4.33333333 4.32432432,8.94106945 4.32432432,14.625 C4.32432432,20.3089306 9.16448919,24.9166667 15.1351351,24.9166667 C21.1057811,24.9166667 25.9459459,20.3089306 25.9459459,14.625 C25.9459459,8.94106945 21.1057811,4.33333333 15.1351351,4.33333333 Z" id="path-1"></path>
    </defs>
    <g id="Stylesheet" stroke="none" stroke-width="1" fill="none" fill-rule="evenodd">
        <g id="Overzichtspagina-desktop" transform="translate(-1490.000000, -44.000000)">
            <g id="Search" transform="translate(1490.000000, 44.000000)">
                <g id="Group">
                    <path d="M26.4864865,26 L35.1351351,37.9166667 C37.3230373,38.6130952 38.7644788,38.6130952 39.4594595,37.9166667 C40.1544402,37.2202381 40.1544402,35.7757937 39.4594595,33.5833333 L28.1081081,24.375 C27.6766661,22.2795631 27.3163057,21.3767853 27.027027,21.6666667 C26.8026951,21.8914659 23.3363558,24.3865381 23.2432432,26 C23.2252718,26.3114113 24.3063529,26.3114113 26.4864865,26 Z" id="Path-4" fill="#999A9C"></path>
                    <g id="Oval">
                        <mask id="mask-2" fill="white">
                            <use xlink:href="#path-1"></use>
                        </mask>
                        <use id="Combined-Shape" fill="#999A9C" xlink:href="#path-1"></use>
                    </g>
                </g>
            </g>
        </g>
    </g>
</svg>